<mxfile host="app.diagrams.net" modified="2024-04-14T14:01:22.216Z" agent="Mozilla/5.0 (Windows NT 10.0; Win64; x64) AppleWebKit/537.36 (KHTML, like Gecko) Chrome/123.0.0.0 Safari/537.36" etag="MlJTxDx3A2zvWC84Tjnq" version="24.2.1" type="device">
  <diagram id="R2lEEEUBdFMjLlhIrx00" name="Page-1">
    <mxGraphModel dx="1547" dy="892" grid="0" gridSize="10" guides="1" tooltips="1" connect="1" arrows="1" fold="1" page="1" pageScale="1" pageWidth="3300" pageHeight="4681" math="0" shadow="0" extFonts="Permanent Marker^https://fonts.googleapis.com/css?family=Permanent+Marker">
      <root>
        <mxCell id="0" />
        <mxCell id="1" parent="0" />
        <mxCell id="wECpMOn6NVA3dJh0bP1A-20" value="" style="rounded=0;whiteSpace=wrap;html=1;strokeWidth=3;" vertex="1" parent="1">
          <mxGeometry x="480.5" y="1071" width="556" height="145" as="geometry" />
        </mxCell>
        <mxCell id="wECpMOn6NVA3dJh0bP1A-2" value="" style="rounded=0;whiteSpace=wrap;html=1;strokeWidth=3;" vertex="1" parent="1">
          <mxGeometry x="483" y="204" width="551" height="659" as="geometry" />
        </mxCell>
        <mxCell id="wECpMOn6NVA3dJh0bP1A-1" value="&lt;font style=&quot;font-size: 16px;&quot;&gt;1.客户端/系统&lt;/font&gt;" style="ellipse;whiteSpace=wrap;html=1;strokeWidth=3;fontStyle=1" vertex="1" parent="1">
          <mxGeometry x="691" y="61" width="120" height="80" as="geometry" />
        </mxCell>
        <mxCell id="wECpMOn6NVA3dJh0bP1A-3" value="MySQL Server&lt;font style=&quot;font-size: 16px;&quot;&gt;层&lt;/font&gt;" style="text;html=1;align=center;verticalAlign=middle;resizable=0;points=[];autosize=1;strokeColor=none;fillColor=none;fontSize=16;fontStyle=1" vertex="1" parent="1">
          <mxGeometry x="497" y="220" width="138" height="31" as="geometry" />
        </mxCell>
        <mxCell id="wECpMOn6NVA3dJh0bP1A-8" style="rounded=0;orthogonalLoop=1;jettySize=auto;html=1;endArrow=block;endFill=1;" edge="1" parent="1" source="wECpMOn6NVA3dJh0bP1A-4" target="wECpMOn6NVA3dJh0bP1A-7">
          <mxGeometry relative="1" as="geometry" />
        </mxCell>
        <mxCell id="wECpMOn6NVA3dJh0bP1A-43" style="edgeStyle=orthogonalEdgeStyle;rounded=0;orthogonalLoop=1;jettySize=auto;html=1;dashed=1;endArrow=none;endFill=0;" edge="1" parent="1">
          <mxGeometry relative="1" as="geometry">
            <mxPoint x="1136" y="289" as="targetPoint" />
            <mxPoint x="836" y="288" as="sourcePoint" />
          </mxGeometry>
        </mxCell>
        <mxCell id="wECpMOn6NVA3dJh0bP1A-4" value="&lt;font style=&quot;font-size: 16px;&quot;&gt;连接器（连接/线程处理）&lt;/font&gt;" style="ellipse;whiteSpace=wrap;html=1;strokeWidth=3;fontStyle=1" vertex="1" parent="1">
          <mxGeometry x="687.75" y="249" width="133.5" height="80" as="geometry" />
        </mxCell>
        <mxCell id="wECpMOn6NVA3dJh0bP1A-73" style="edgeStyle=orthogonalEdgeStyle;rounded=0;orthogonalLoop=1;jettySize=auto;html=1;endArrow=block;endFill=1;" edge="1" parent="1" source="wECpMOn6NVA3dJh0bP1A-7" target="wECpMOn6NVA3dJh0bP1A-10">
          <mxGeometry relative="1" as="geometry" />
        </mxCell>
        <mxCell id="wECpMOn6NVA3dJh0bP1A-7" value="&lt;span style=&quot;font-size: 16px;&quot;&gt;查询缓存&lt;/span&gt;" style="ellipse;whiteSpace=wrap;html=1;strokeWidth=3;fontStyle=1" vertex="1" parent="1">
          <mxGeometry x="696" y="373" width="120" height="80" as="geometry" />
        </mxCell>
        <mxCell id="wECpMOn6NVA3dJh0bP1A-6" style="edgeStyle=orthogonalEdgeStyle;rounded=0;orthogonalLoop=1;jettySize=auto;html=1;endArrow=block;endFill=1;" edge="1" parent="1">
          <mxGeometry relative="1" as="geometry">
            <mxPoint x="731" y="152" as="sourcePoint" />
            <mxPoint x="730.5" y="192" as="targetPoint" />
            <Array as="points">
              <mxPoint x="730.5" y="182" />
              <mxPoint x="730.5" y="182" />
            </Array>
          </mxGeometry>
        </mxCell>
        <mxCell id="wECpMOn6NVA3dJh0bP1A-14" style="rounded=0;orthogonalLoop=1;jettySize=auto;html=1;entryX=0.5;entryY=0;entryDx=0;entryDy=0;endArrow=block;endFill=1;" edge="1" parent="1" source="wECpMOn6NVA3dJh0bP1A-10" target="wECpMOn6NVA3dJh0bP1A-12">
          <mxGeometry relative="1" as="geometry" />
        </mxCell>
        <mxCell id="wECpMOn6NVA3dJh0bP1A-10" value="&lt;span style=&quot;font-size: 16px;&quot;&gt;分析器&lt;/span&gt;" style="ellipse;whiteSpace=wrap;html=1;strokeWidth=3;fontStyle=1" vertex="1" parent="1">
          <mxGeometry x="696" y="493.5" width="120" height="80" as="geometry" />
        </mxCell>
        <mxCell id="wECpMOn6NVA3dJh0bP1A-12" value="&lt;span style=&quot;font-size: 16px;&quot;&gt;5.优化器&lt;/span&gt;" style="ellipse;whiteSpace=wrap;html=1;strokeWidth=3;fontStyle=1" vertex="1" parent="1">
          <mxGeometry x="694.5" y="624" width="120" height="80" as="geometry" />
        </mxCell>
        <mxCell id="wECpMOn6NVA3dJh0bP1A-13" value="&lt;span style=&quot;font-size: 16px;&quot;&gt;6.执行器&lt;/span&gt;" style="ellipse;whiteSpace=wrap;html=1;strokeWidth=3;fontStyle=1" vertex="1" parent="1">
          <mxGeometry x="698.5" y="758" width="120" height="80" as="geometry" />
        </mxCell>
        <mxCell id="wECpMOn6NVA3dJh0bP1A-15" style="edgeStyle=orthogonalEdgeStyle;rounded=0;orthogonalLoop=1;jettySize=auto;html=1;entryX=0.472;entryY=0.025;entryDx=0;entryDy=0;entryPerimeter=0;endArrow=block;endFill=1;" edge="1" parent="1" source="wECpMOn6NVA3dJh0bP1A-12" target="wECpMOn6NVA3dJh0bP1A-13">
          <mxGeometry relative="1" as="geometry" />
        </mxCell>
        <mxCell id="wECpMOn6NVA3dJh0bP1A-17" value="&lt;p&gt;存储引擎API（一组接口或方法，用于执行数据存储和检索等操作这些 API的具体实现由存储引擎的开发者实现，以确保与存储引擎的特性和实现方式相匹配）&lt;/p&gt;" style="rounded=1;whiteSpace=wrap;html=1;strokeWidth=3;fontStyle=1;fontSize=14;" vertex="1" parent="1">
          <mxGeometry x="548" y="933" width="416" height="68" as="geometry" />
        </mxCell>
        <mxCell id="wECpMOn6NVA3dJh0bP1A-22" value="&lt;font style=&quot;font-weight: 700; font-size: 16px;&quot;&gt;存储引擎层&lt;/font&gt;" style="text;html=1;align=center;verticalAlign=middle;resizable=0;points=[];autosize=1;strokeColor=none;fillColor=none;fontSize=16;" vertex="1" parent="1">
          <mxGeometry x="492.5" y="1085" width="98" height="31" as="geometry" />
        </mxCell>
        <mxCell id="wECpMOn6NVA3dJh0bP1A-23" value="MyISAM" style="shape=cylinder3;whiteSpace=wrap;html=1;boundedLbl=1;backgroundOutline=1;size=15;strokeWidth=2;" vertex="1" parent="1">
          <mxGeometry x="530.5" y="1124" width="73" height="68" as="geometry" />
        </mxCell>
        <mxCell id="wECpMOn6NVA3dJh0bP1A-24" value="InnoDB" style="shape=cylinder3;whiteSpace=wrap;html=1;boundedLbl=1;backgroundOutline=1;size=15;strokeWidth=2;" vertex="1" parent="1">
          <mxGeometry x="634.5" y="1126" width="73.5" height="66" as="geometry" />
        </mxCell>
        <mxCell id="wECpMOn6NVA3dJh0bP1A-26" style="edgeStyle=orthogonalEdgeStyle;rounded=0;orthogonalLoop=1;jettySize=auto;html=1;endArrow=block;endFill=1;" edge="1" parent="1">
          <mxGeometry relative="1" as="geometry">
            <mxPoint x="752" y="151" as="sourcePoint" />
            <mxPoint x="751.85" y="193" as="targetPoint" />
            <Array as="points">
              <mxPoint x="751.85" y="183" />
              <mxPoint x="751.85" y="183" />
            </Array>
          </mxGeometry>
        </mxCell>
        <mxCell id="wECpMOn6NVA3dJh0bP1A-27" style="edgeStyle=orthogonalEdgeStyle;rounded=0;orthogonalLoop=1;jettySize=auto;html=1;endArrow=block;endFill=1;" edge="1" parent="1">
          <mxGeometry relative="1" as="geometry">
            <mxPoint x="772" y="151" as="sourcePoint" />
            <mxPoint x="772.5" y="193" as="targetPoint" />
            <Array as="points">
              <mxPoint x="772.5" y="183" />
              <mxPoint x="772.5" y="183" />
            </Array>
          </mxGeometry>
        </mxCell>
        <mxCell id="wECpMOn6NVA3dJh0bP1A-30" style="edgeStyle=orthogonalEdgeStyle;rounded=0;orthogonalLoop=1;jettySize=auto;html=1;endArrow=block;endFill=1;" edge="1" parent="1">
          <mxGeometry relative="1" as="geometry">
            <mxPoint x="731.5" y="887" as="sourcePoint" />
            <mxPoint x="731" y="927" as="targetPoint" />
            <Array as="points">
              <mxPoint x="731" y="917" />
              <mxPoint x="731" y="917" />
            </Array>
          </mxGeometry>
        </mxCell>
        <mxCell id="wECpMOn6NVA3dJh0bP1A-31" style="edgeStyle=orthogonalEdgeStyle;rounded=0;orthogonalLoop=1;jettySize=auto;html=1;endArrow=block;endFill=1;" edge="1" parent="1">
          <mxGeometry relative="1" as="geometry">
            <mxPoint x="752.5" y="886" as="sourcePoint" />
            <mxPoint x="752.35" y="928" as="targetPoint" />
            <Array as="points">
              <mxPoint x="752.35" y="918" />
              <mxPoint x="752.35" y="918" />
            </Array>
          </mxGeometry>
        </mxCell>
        <mxCell id="wECpMOn6NVA3dJh0bP1A-32" style="edgeStyle=orthogonalEdgeStyle;rounded=0;orthogonalLoop=1;jettySize=auto;html=1;endArrow=block;endFill=1;" edge="1" parent="1">
          <mxGeometry relative="1" as="geometry">
            <mxPoint x="772.5" y="886" as="sourcePoint" />
            <mxPoint x="773" y="928" as="targetPoint" />
            <Array as="points">
              <mxPoint x="772.5" y="907" />
            </Array>
          </mxGeometry>
        </mxCell>
        <mxCell id="wECpMOn6NVA3dJh0bP1A-33" style="edgeStyle=orthogonalEdgeStyle;rounded=0;orthogonalLoop=1;jettySize=auto;html=1;endArrow=block;endFill=1;" edge="1" parent="1">
          <mxGeometry relative="1" as="geometry">
            <mxPoint x="735.5" y="1012" as="sourcePoint" />
            <mxPoint x="735" y="1052" as="targetPoint" />
            <Array as="points">
              <mxPoint x="735" y="1042" />
              <mxPoint x="735" y="1042" />
            </Array>
          </mxGeometry>
        </mxCell>
        <mxCell id="wECpMOn6NVA3dJh0bP1A-34" style="edgeStyle=orthogonalEdgeStyle;rounded=0;orthogonalLoop=1;jettySize=auto;html=1;endArrow=block;endFill=1;" edge="1" parent="1">
          <mxGeometry relative="1" as="geometry">
            <mxPoint x="756.5" y="1011" as="sourcePoint" />
            <mxPoint x="756.35" y="1053" as="targetPoint" />
            <Array as="points">
              <mxPoint x="756.35" y="1043" />
              <mxPoint x="756.35" y="1043" />
            </Array>
          </mxGeometry>
        </mxCell>
        <mxCell id="wECpMOn6NVA3dJh0bP1A-35" style="edgeStyle=orthogonalEdgeStyle;rounded=0;orthogonalLoop=1;jettySize=auto;html=1;endArrow=block;endFill=1;" edge="1" parent="1">
          <mxGeometry relative="1" as="geometry">
            <mxPoint x="776.5" y="1011" as="sourcePoint" />
            <mxPoint x="777" y="1053" as="targetPoint" />
            <Array as="points">
              <mxPoint x="776.5" y="1032" />
            </Array>
          </mxGeometry>
        </mxCell>
        <mxCell id="wECpMOn6NVA3dJh0bP1A-36" value="……" style="shape=cylinder3;whiteSpace=wrap;html=1;boundedLbl=1;backgroundOutline=1;size=15;strokeWidth=2;" vertex="1" parent="1">
          <mxGeometry x="738.5" y="1126" width="73.5" height="66" as="geometry" />
        </mxCell>
        <mxCell id="wECpMOn6NVA3dJh0bP1A-37" value="……" style="shape=cylinder3;whiteSpace=wrap;html=1;boundedLbl=1;backgroundOutline=1;size=15;strokeWidth=2;" vertex="1" parent="1">
          <mxGeometry x="835.5" y="1126" width="73.5" height="66" as="geometry" />
        </mxCell>
        <mxCell id="wECpMOn6NVA3dJh0bP1A-38" value="……" style="shape=cylinder3;whiteSpace=wrap;html=1;boundedLbl=1;backgroundOutline=1;size=15;strokeWidth=2;" vertex="1" parent="1">
          <mxGeometry x="928.5" y="1126" width="73.5" height="66" as="geometry" />
        </mxCell>
        <mxCell id="wECpMOn6NVA3dJh0bP1A-46" value="" style="rounded=0;whiteSpace=wrap;html=1;strokeWidth=3;" vertex="1" parent="1">
          <mxGeometry x="1150" y="188" width="246" height="215" as="geometry" />
        </mxCell>
        <mxCell id="wECpMOn6NVA3dJh0bP1A-47" value="连接器内部详情" style="text;html=1;align=center;verticalAlign=middle;resizable=0;points=[];autosize=1;strokeColor=none;fillColor=none;" vertex="1" parent="1">
          <mxGeometry x="1222" y="152" width="102" height="26" as="geometry" />
        </mxCell>
        <mxCell id="wECpMOn6NVA3dJh0bP1A-55" style="edgeStyle=orthogonalEdgeStyle;rounded=0;orthogonalLoop=1;jettySize=auto;html=1;entryX=0;entryY=0.5;entryDx=0;entryDy=0;" edge="1" parent="1" source="wECpMOn6NVA3dJh0bP1A-49" target="wECpMOn6NVA3dJh0bP1A-52">
          <mxGeometry relative="1" as="geometry" />
        </mxCell>
        <mxCell id="wECpMOn6NVA3dJh0bP1A-49" value="" style="rounded=1;whiteSpace=wrap;html=1;" vertex="1" parent="1">
          <mxGeometry x="1171" y="207" width="69" height="79" as="geometry" />
        </mxCell>
        <mxCell id="wECpMOn6NVA3dJh0bP1A-57" style="edgeStyle=orthogonalEdgeStyle;rounded=0;orthogonalLoop=1;jettySize=auto;html=1;entryX=1;entryY=0.5;entryDx=0;entryDy=0;" edge="1" parent="1" source="wECpMOn6NVA3dJh0bP1A-52" target="wECpMOn6NVA3dJh0bP1A-56">
          <mxGeometry relative="1" as="geometry" />
        </mxCell>
        <mxCell id="wECpMOn6NVA3dJh0bP1A-52" value="" style="rounded=1;whiteSpace=wrap;html=1;" vertex="1" parent="1">
          <mxGeometry x="1298" y="207" width="69" height="79" as="geometry" />
        </mxCell>
        <mxCell id="wECpMOn6NVA3dJh0bP1A-53" value="TCP连接池" style="text;html=1;align=center;verticalAlign=middle;resizable=0;points=[];autosize=1;strokeColor=none;fillColor=none;fontSize=8;" vertex="1" parent="1">
          <mxGeometry x="1176.5" y="207" width="58" height="22" as="geometry" />
        </mxCell>
        <mxCell id="wECpMOn6NVA3dJh0bP1A-54" value="线程池" style="text;html=1;align=center;verticalAlign=middle;resizable=0;points=[];autosize=1;strokeColor=none;fillColor=none;fontSize=8;" vertex="1" parent="1">
          <mxGeometry x="1311.5" y="207" width="42" height="22" as="geometry" />
        </mxCell>
        <mxCell id="wECpMOn6NVA3dJh0bP1A-56" value="认证、权限获取" style="ellipse;whiteSpace=wrap;html=1;" vertex="1" parent="1">
          <mxGeometry x="1216.5" y="320" width="95" height="63" as="geometry" />
        </mxCell>
        <mxCell id="wECpMOn6NVA3dJh0bP1A-58" value="连接管理" style="text;html=1;align=center;verticalAlign=middle;resizable=0;points=[];autosize=1;strokeColor=none;fillColor=none;" vertex="1" parent="1">
          <mxGeometry x="1234.5" y="188" width="66" height="26" as="geometry" />
        </mxCell>
        <mxCell id="wECpMOn6NVA3dJh0bP1A-59" value="连接" style="rounded=0;whiteSpace=wrap;html=1;fontSize=8;" vertex="1" parent="1">
          <mxGeometry x="1187.5" y="230" width="36" height="18" as="geometry" />
        </mxCell>
        <mxCell id="wECpMOn6NVA3dJh0bP1A-60" value="连接" style="rounded=0;whiteSpace=wrap;html=1;fontSize=8;" vertex="1" parent="1">
          <mxGeometry x="1187.5" y="254" width="36" height="18" as="geometry" />
        </mxCell>
        <mxCell id="wECpMOn6NVA3dJh0bP1A-61" value="线程" style="rounded=0;whiteSpace=wrap;html=1;fontSize=8;" vertex="1" parent="1">
          <mxGeometry x="1314.5" y="229" width="36" height="18" as="geometry" />
        </mxCell>
        <mxCell id="wECpMOn6NVA3dJh0bP1A-62" value="线程" style="rounded=0;whiteSpace=wrap;html=1;fontSize=8;" vertex="1" parent="1">
          <mxGeometry x="1314.5" y="254" width="36" height="18" as="geometry" />
        </mxCell>
        <mxCell id="wECpMOn6NVA3dJh0bP1A-63" value="管理连接、用户信息认证授权" style="text;html=1;align=center;verticalAlign=middle;resizable=0;points=[];autosize=1;strokeColor=none;fillColor=none;" vertex="1" parent="1">
          <mxGeometry x="824" y="239" width="174" height="26" as="geometry" />
        </mxCell>
        <mxCell id="wECpMOn6NVA3dJh0bP1A-69" value="缓存命中直接返回结果" style="text;html=1;align=center;verticalAlign=middle;resizable=0;points=[];autosize=1;strokeColor=none;fillColor=none;" vertex="1" parent="1">
          <mxGeometry x="521" y="407" width="138" height="26" as="geometry" />
        </mxCell>
        <mxCell id="wECpMOn6NVA3dJh0bP1A-71" value="可通过query_cache_type参数开启缓存" style="text;html=1;align=center;verticalAlign=middle;resizable=0;points=[];autosize=1;strokeColor=none;fillColor=none;" vertex="1" parent="1">
          <mxGeometry x="480.5" y="377" width="224" height="26" as="geometry" />
        </mxCell>
        <mxCell id="wECpMOn6NVA3dJh0bP1A-72" value="&lt;span style=&quot;color: rgb(51, 51, 51); font-family: &amp;quot;Open Sans&amp;quot;, &amp;quot;Clear Sans&amp;quot;, &amp;quot;Helvetica Neue&amp;quot;, Helvetica, Arial, &amp;quot;Segoe UI Emoji&amp;quot;, sans-serif; font-size: 16px; orphans: 4; text-align: start; white-space: pre-wrap; background-color: rgb(255, 255, 255);&quot;&gt;预处理与解析SQL语句&lt;/span&gt;" style="text;html=1;align=center;verticalAlign=middle;resizable=0;points=[];autosize=1;strokeColor=none;fillColor=none;" vertex="1" parent="1">
          <mxGeometry x="766" y="522" width="178" height="31" as="geometry" />
        </mxCell>
        <mxCell id="wECpMOn6NVA3dJh0bP1A-74" value="优化SQL语句，提交执行SQL语句" style="text;html=1;align=center;verticalAlign=middle;resizable=0;points=[];autosize=1;strokeColor=none;fillColor=none;" vertex="1" parent="1">
          <mxGeometry x="826" y="646" width="198" height="26" as="geometry" />
        </mxCell>
        <mxCell id="wECpMOn6NVA3dJh0bP1A-75" value="调用存储引擎执行SQL" style="text;html=1;align=center;verticalAlign=middle;resizable=0;points=[];autosize=1;strokeColor=none;fillColor=none;" vertex="1" parent="1">
          <mxGeometry x="829" y="789" width="138" height="26" as="geometry" />
        </mxCell>
      </root>
    </mxGraphModel>
  </diagram>
</mxfile>
